<svg viewBox="0 0 44 44" xmlns="http://www.w3.org/2000/svg">
  <defs>
    <linearGradient id="pg" x1="0" y1="0" x2="0" y2="1">
      <stop offset="0%" stop-color="#c4783a"/>
      <stop offset="100%" stop-color="#8A3A2A"/>
    </linearGradient>
    <radialGradient id="ig" cx="50%" cy="50%" r="50%">
      <stop offset="0%" stop-color="#c4783a" stop-opacity="0.3"/>
      <stop offset="100%" stop-color="#c4783a" stop-opacity="0"/>
    </radialGradient>
  </defs>
  <g transform="translate(22, 22)">
    <circle cx="0" cy="0" r="20" fill="none" stroke="#c4783a" stroke-width="1" opacity="0.4"/>
    <circle cx="0" cy="0" r="17" fill="none" stroke="url(#pg)" stroke-width="2"/>
    <circle cx="0" cy="0" r="13" fill="none" stroke="#8A3A2A" stroke-width="0.6" stroke-dasharray="2,4"/>
    <circle cx="0" cy="0" r="11" fill="url(#ig)"/>
    <path d="M-9,0 Q-6,-5 -3,0 Q0,5 3,0 Q6,-5 9,0" fill="none" stroke="#c4783a" stroke-width="1.5"/>
    <path d="M-9,0 Q-6,5 -3,0 Q0,-5 3,0 Q6,5 9,0" fill="none" stroke="#c4783a" stroke-width="0.8" opacity="0.4"/>
    <circle cx="-7" cy="-3" r="1" fill="#8A3A2A" opacity="0.8"/>
    <circle cx="3" cy="4" r="0.7" fill="#8A3A2A" opacity="0.6"/>
    <circle cx="7" cy="-2" r="0.8" fill="#c4783a" opacity="0.9"/>
    <line x1="0" y1="-20" x2="0" y2="-17" stroke="#c4783a" stroke-width="1.5"/>
    <line x1="20" y1="0" x2="17" y2="0" stroke="#c4783a" stroke-width="1"/>
    <line x1="0" y1="20" x2="0" y2="17" stroke="#c4783a" stroke-width="1"/>
    <line x1="-20" y1="0" x2="-17" y2="0" stroke="#c4783a" stroke-width="1"/>
    <line x1="14" y1="-14" x2="12.5" y2="-12.5" stroke="#c4783a" stroke-width="0.6" opacity="0.5"/>
    <line x1="14" y1="14" x2="12.5" y2="12.5" stroke="#c4783a" stroke-width="0.6" opacity="0.5"/>
    <line x1="-14" y1="-14" x2="-12.5" y2="-12.5" stroke="#c4783a" stroke-width="0.6" opacity="0.5"/>
    <line x1="-14" y1="14" x2="-12.5" y2="12.5" stroke="#c4783a" stroke-width="0.6" opacity="0.5"/>
  </g>
</svg>
